<svg xmlns="http://www.w3.org/2000/svg" xmlns:xlink="http://www.w3.org/1999/xlink" width="150" zoomAndPan="magnify" viewBox="0 0 112.5 44.999999" height="60" preserveAspectRatio="xMidYMid meet" version="1.0"><defs><g/><clipPath id="6284a2e082"><path d="M 0 0.0976562 L 112.003906 0.0976562 L 112.003906 44.898438 L 0 44.898438 Z M 0 0.0976562 " clip-rule="nonzero"/></clipPath></defs><g clip-path="url(#6284a2e082)"><path fill="#ffffff" d="M 0 0.0976562 L 112.003906 0.0976562 L 112.003906 44.902344 L 0 44.902344 Z M 0 0.0976562 " fill-opacity="1" fill-rule="nonzero"/><path fill="#f2f4f7" d="M 0 0.0976562 L 112.003906 0.0976562 L 112.003906 44.902344 L 0 44.902344 Z M 0 0.0976562 " fill-opacity="1" fill-rule="nonzero"/></g><g fill="#000000" fill-opacity="1"><g transform="translate(0.207902, 33.563986)"><g><path d="M 4.03125 -2.265625 C 1.914062 -4.148438 0.859375 -6.566406 0.859375 -9.515625 C 0.859375 -12.472656 1.960938 -14.898438 4.171875 -16.796875 C 6.378906 -18.703125 9.109375 -19.65625 12.359375 -19.65625 C 15.554688 -19.65625 18.253906 -18.695312 20.453125 -16.78125 C 22.648438 -14.875 23.75 -12.457031 23.75 -9.53125 C 23.75 -6.601562 22.675781 -4.1875 20.53125 -2.28125 C 18.382812 -0.382812 15.660156 0.5625 12.359375 0.5625 C 8.929688 0.5625 6.15625 -0.378906 4.03125 -2.265625 Z M 9.140625 -12.765625 C 8.285156 -11.921875 7.859375 -10.84375 7.859375 -9.53125 C 7.859375 -8.21875 8.265625 -7.144531 9.078125 -6.3125 C 9.898438 -5.476562 10.976562 -5.0625 12.3125 -5.0625 C 13.601562 -5.0625 14.664062 -5.484375 15.5 -6.328125 C 16.332031 -7.171875 16.75 -8.238281 16.75 -9.53125 C 16.75 -10.84375 16.320312 -11.921875 15.46875 -12.765625 C 14.613281 -13.609375 13.5625 -14.03125 12.3125 -14.03125 C 11.050781 -14.03125 9.992188 -13.609375 9.140625 -12.765625 Z M 9.140625 -12.765625 "/></g></g></g><g fill="#000000" fill-opacity="1"><g transform="translate(21.301473, 33.563986)"><g><path d="M 21.875 -16.734375 C 23.664062 -14.785156 24.5625 -12.394531 24.5625 -9.5625 C 24.5625 -6.738281 23.664062 -4.34375 21.875 -2.375 C 20.09375 -0.414062 17.828125 0.5625 15.078125 0.5625 C 12.546875 0.5625 10.460938 -0.234375 8.828125 -1.828125 L 8.828125 9.671875 L 2.234375 9.671875 L 2.234375 -19.09375 L 8.75 -19.09375 L 8.75 -16.9375 L 8.828125 -16.9375 C 10.460938 -18.75 12.546875 -19.65625 15.078125 -19.65625 C 17.828125 -19.65625 20.09375 -18.679688 21.875 -16.734375 Z M 16.28125 -6.328125 C 17.132812 -7.171875 17.5625 -8.25 17.5625 -9.5625 C 17.5625 -10.875 17.148438 -11.945312 16.328125 -12.78125 C 15.515625 -13.613281 14.4375 -14.03125 13.09375 -14.03125 C 11.8125 -14.03125 10.753906 -13.609375 9.921875 -12.765625 C 9.085938 -11.921875 8.671875 -10.851562 8.671875 -9.5625 C 8.671875 -8.25 9.097656 -7.171875 9.953125 -6.328125 C 10.804688 -5.484375 11.851562 -5.0625 13.09375 -5.0625 C 14.363281 -5.0625 15.425781 -5.484375 16.28125 -6.328125 Z M 16.28125 -6.328125 "/></g></g></g><g fill="#000000" fill-opacity="1"><g transform="translate(43.213531, 33.563986)"><g><path d="M 2.859375 -29.734375 C 3.628906 -30.503906 4.546875 -30.890625 5.609375 -30.890625 C 6.679688 -30.890625 7.601562 -30.503906 8.375 -29.734375 C 9.144531 -28.960938 9.53125 -28.046875 9.53125 -26.984375 C 9.53125 -25.921875 9.144531 -25.003906 8.375 -24.234375 C 7.601562 -23.460938 6.679688 -23.078125 5.609375 -23.078125 C 4.546875 -23.078125 3.628906 -23.460938 2.859375 -24.234375 C 2.097656 -25.003906 1.71875 -25.921875 1.71875 -26.984375 C 1.71875 -28.046875 2.097656 -28.960938 2.859375 -29.734375 Z M 2.234375 -19.09375 L 2.234375 0 L 8.828125 0 L 8.828125 -19.09375 Z M 2.234375 -19.09375 "/></g></g></g><g fill="#000000" fill-opacity="1"><g transform="translate(50.950919, 33.563986)"><g><path d="M 2.234375 0 L 2.234375 -19.09375 L 8.828125 -19.09375 L 8.828125 -17.078125 L 8.890625 -17.078125 C 10.609375 -18.796875 12.429688 -19.65625 14.359375 -19.65625 C 15.304688 -19.65625 16.242188 -19.53125 17.171875 -19.28125 C 18.109375 -19.03125 19.003906 -18.644531 19.859375 -18.125 C 20.710938 -17.601562 21.40625 -16.863281 21.9375 -15.90625 C 22.46875 -14.957031 22.734375 -13.847656 22.734375 -12.578125 L 22.734375 0 L 16.15625 0 L 16.15625 -10.796875 C 16.15625 -11.785156 15.835938 -12.648438 15.203125 -13.390625 C 14.566406 -14.140625 13.742188 -14.515625 12.734375 -14.515625 C 11.734375 -14.515625 10.832031 -14.128906 10.03125 -13.359375 C 9.226562 -12.585938 8.828125 -11.734375 8.828125 -10.796875 L 8.828125 0 Z M 2.234375 0 "/></g></g></g><g fill="#5e17eb" fill-opacity="1"><g transform="translate(72.05244, 33.563986)"><g><path d="M 2.859375 -29.734375 C 3.628906 -30.503906 4.546875 -30.890625 5.609375 -30.890625 C 6.679688 -30.890625 7.601562 -30.503906 8.375 -29.734375 C 9.144531 -28.960938 9.53125 -28.046875 9.53125 -26.984375 C 9.53125 -25.921875 9.144531 -25.003906 8.375 -24.234375 C 7.601562 -23.460938 6.679688 -23.078125 5.609375 -23.078125 C 4.546875 -23.078125 3.628906 -23.460938 2.859375 -24.234375 C 2.097656 -25.003906 1.71875 -25.921875 1.71875 -26.984375 C 1.71875 -28.046875 2.097656 -28.960938 2.859375 -29.734375 Z M 2.234375 -19.09375 L 2.234375 0 L 8.828125 0 L 8.828125 -19.09375 Z M 2.234375 -19.09375 "/></g></g></g><g fill="#5e17eb" fill-opacity="1"><g transform="translate(79.789828, 33.563986)"><g><path d="M 4.03125 -2.265625 C 1.914062 -4.148438 0.859375 -6.566406 0.859375 -9.515625 C 0.859375 -12.472656 1.960938 -14.898438 4.171875 -16.796875 C 6.378906 -18.703125 9.109375 -19.65625 12.359375 -19.65625 C 15.554688 -19.65625 18.253906 -18.695312 20.453125 -16.78125 C 22.648438 -14.875 23.75 -12.457031 23.75 -9.53125 C 23.75 -6.601562 22.675781 -4.1875 20.53125 -2.28125 C 18.382812 -0.382812 15.660156 0.5625 12.359375 0.5625 C 8.929688 0.5625 6.15625 -0.378906 4.03125 -2.265625 Z M 9.140625 -12.765625 C 8.285156 -11.921875 7.859375 -10.84375 7.859375 -9.53125 C 7.859375 -8.21875 8.265625 -7.144531 9.078125 -6.3125 C 9.898438 -5.476562 10.976562 -5.0625 12.3125 -5.0625 C 13.601562 -5.0625 14.664062 -5.484375 15.5 -6.328125 C 16.332031 -7.171875 16.75 -8.238281 16.75 -9.53125 C 16.75 -10.84375 16.320312 -11.921875 15.46875 -12.765625 C 14.613281 -13.609375 13.5625 -14.03125 12.3125 -14.03125 C 11.050781 -14.03125 9.992188 -13.609375 9.140625 -12.765625 Z M 9.140625 -12.765625 "/></g></g></g><g fill="#5e17eb" fill-opacity="1"><g transform="translate(100.883399, 33.563986)"><g><path d="M 6.46875 -7.96875 C 7.664062 -7.96875 8.675781 -7.550781 9.5 -6.71875 C 10.332031 -5.882812 10.75 -4.875 10.75 -3.6875 C 10.75 -2.519531 10.332031 -1.519531 9.5 -0.6875 C 8.675781 0.144531 7.664062 0.5625 6.46875 0.5625 C 5.3125 0.5625 4.316406 0.144531 3.484375 -0.6875 C 2.648438 -1.519531 2.234375 -2.519531 2.234375 -3.6875 C 2.234375 -4.875 2.648438 -5.882812 3.484375 -6.71875 C 4.316406 -7.550781 5.3125 -7.96875 6.46875 -7.96875 Z M 6.46875 -7.96875 "/></g></g></g></svg>